<svg width="58" height="56" viewBox="0 0 58 56" fill="none" xmlns="http://www.w3.org/2000/svg">
<path d="M57.6653 11.1178C57.3332 10.642 56.799 10.3479 56.2187 10.3231L20.2408 8.77226C19.2085 8.7271 18.3459 9.52405 18.3017 10.5515C18.2579 11.5786 19.0535 12.4464 20.0809 12.4905L53.623 13.9365L47.0279 34.5136H17.679L12.3766 5.64287C12.2601 5.01011 11.8257 4.48223 11.2265 4.24717L2.54222 0.835464C1.5851 0.460741 0.505061 0.930864 0.12917 1.88682C-0.246072 2.84329 0.223922 3.92397 1.18052 4.29986L8.90225 7.33334L14.2982 36.7108C14.4608 37.594 15.2305 38.2354 16.1288 38.2354H17.0239L14.98 43.9127C14.8089 44.3883 14.8794 44.9165 15.1705 45.3296C15.4613 45.7429 15.9341 45.9887 16.4389 45.9887H17.8725C16.9842 46.9774 16.4389 48.2791 16.4389 49.7106C16.4389 52.7891 18.9438 55.2934 22.0217 55.2934C25.0996 55.2934 27.6045 52.7891 27.6045 49.7106C27.6045 48.2792 27.0592 46.9774 26.171 45.9887H38.343C37.4543 46.9774 36.9091 48.2791 36.9091 49.7106C36.9091 52.7891 39.4134 55.2934 42.4919 55.2934C45.5706 55.2934 48.0747 52.7891 48.0747 49.7106C48.0747 48.2792 47.5296 46.9774 46.6415 45.9887H48.3849C49.2416 45.9887 49.9358 45.2944 49.9358 44.438C49.9358 43.5814 49.2415 42.8872 48.3849 42.8872H18.6454L20.3201 38.2349H48.3848C49.1941 38.2349 49.9102 37.7121 50.1567 36.9421L57.9106 12.7498C58.0887 12.1976 57.9973 11.5939 57.6653 11.1178ZM22.0218 52.1925C20.6534 52.1925 19.5405 51.0797 19.5405 49.7113C19.5405 48.3428 20.6534 47.2299 22.0218 47.2299C23.3903 47.2299 24.503 48.3428 24.503 49.7113C24.503 51.0797 23.3903 52.1925 22.0218 52.1925ZM42.4919 52.1925C41.1235 52.1925 40.0107 51.0797 40.0107 49.7113C40.0107 48.3428 41.1235 47.2299 42.4919 47.2299C43.8604 47.2299 44.9731 48.3428 44.9731 49.7113C44.9731 51.0797 43.8604 52.1925 42.4919 52.1925Z" fill="#378782"/>
</svg>
